<svg width="118" height="28" viewBox="0 0 118 28" fill="none" xmlns="http://www.w3.org/2000/svg">
<g id="Google Play">
<g id="g1231">
<path id="path1192" fill-rule="evenodd" clip-rule="evenodd" d="M0.487408 0.422188C0.177897 0.75484 0 1.26683 0 1.93214V25.5967C0 26.262 0.177897 26.774 0.498978 27.0951L0.582864 27.166L13.8427 13.9062V13.6082L0.571294 0.351318L0.487408 0.422188Z" fill="url(#paint0_linear_21_158)"/>
<path id="path1203" fill-rule="evenodd" clip-rule="evenodd" d="M18.2539 18.3435L13.8311 13.9192V13.6097L18.2553 9.18542L18.3508 9.24472L23.5835 12.2183C25.0819 13.063 25.0819 14.4543 23.5835 15.3106L18.3508 18.2842C18.3493 18.2842 18.2539 18.3435 18.2539 18.3435Z" fill="url(#paint1_linear_21_158)"/>
<path id="path1210" fill-rule="evenodd" clip-rule="evenodd" d="M18.3494 18.2841L13.8311 13.7644L0.487427 27.1081C0.974834 27.6317 1.79489 27.691 2.71186 27.179L18.3494 18.2841Z" fill="url(#paint2_linear_21_158)"/>
<path id="path1223" fill-rule="evenodd" clip-rule="evenodd" d="M18.3494 9.2462L2.71186 0.362939C1.79634 -0.160627 0.974834 -0.0897573 0.487427 0.433808L13.8297 13.7645L18.3494 9.2462Z" fill="url(#paint3_linear_21_158)"/>
<path id="path1225" opacity="0.2" fill-rule="evenodd" clip-rule="evenodd" d="M18.254 18.1887L2.72345 27.0127C1.85567 27.5117 1.08189 27.4769 0.58291 27.0243L0.499023 27.1081L0.58291 27.179C1.08189 27.6303 1.85567 27.6664 2.72345 27.1674L18.361 18.2842L18.254 18.1887Z" fill="black"/>
<path id="path1227" opacity="0.12" fill-rule="evenodd" clip-rule="evenodd" d="M23.5821 15.1558L18.2423 18.1887L18.3378 18.2841L23.5705 15.3105C24.3197 14.8824 24.6885 14.3241 24.6885 13.7644C24.6408 14.2764 24.2604 14.7638 23.5821 15.1558Z" fill="black"/>
<path id="path1229" opacity="0.25" fill-rule="evenodd" clip-rule="evenodd" d="M2.71184 0.51766L23.5821 12.3745C24.2605 12.7549 24.6408 13.2539 24.7001 13.7659C24.7001 13.2076 24.3313 12.6479 23.5821 12.2198L2.71184 0.362905C1.21346 -0.493313 0 0.21972 0 1.93215V2.08691C0 0.374475 1.21346 -0.326987 2.71184 0.51766Z" fill="white"/>
</g>
<g id="g1237">
<path id="path1233" fill-rule="evenodd" clip-rule="evenodd" d="M29.7942 13.0138C29.7942 9.22303 32.9804 6.1366 36.7712 6.1366C38.8669 6.1366 40.358 6.95955 41.4833 8.03127L40.1584 9.35609C39.3543 8.60112 38.2638 8.01536 36.7697 8.01536C34.0015 8.01536 31.8378 10.2441 31.8378 13.0124C31.8378 15.7806 34.0015 18.0123 36.7683 18.0123C38.5631 18.0123 39.5842 17.292 40.2394 16.6354C40.776 16.0988 41.1275 15.3279 41.2634 14.2707H36.7712V12.3962H43.0945C43.161 12.7318 43.1957 13.1339 43.1957 13.5692C43.1957 14.9765 42.8095 16.7222 41.5671 17.9645C40.358 19.2228 38.8163 19.8939 36.7697 19.8939C32.9775 19.8939 29.7913 16.8104 29.7913 13.0167L29.7942 13.0138ZM48.307 11.0353C45.8584 11.0353 43.8596 12.8981 43.8596 15.4624C43.8596 18.0137 45.8569 19.8896 48.307 19.8896C50.757 19.8896 52.7515 18.0108 52.7515 15.461C52.7515 12.8967 50.7556 11.0338 48.307 11.0353ZM48.307 18.1482C46.9662 18.1482 45.8077 17.0418 45.8077 15.4639C45.8077 13.87 46.9648 12.7795 48.307 12.7795C49.6477 12.7795 50.8047 13.8686 50.8047 15.4639C50.8047 17.0404 49.6491 18.1482 48.307 18.1482ZM58.0045 11.0353C55.5559 11.0353 53.56 12.8981 53.56 15.4624C53.56 18.0137 55.5559 19.8896 58.0045 19.8896C60.4531 19.8896 62.449 18.0108 62.449 15.461C62.449 12.8967 60.4546 11.0338 58.0045 11.0353ZM58.0045 18.1482C56.6638 18.1482 55.5053 17.0418 55.5053 15.4639C55.5053 13.87 56.6623 12.7795 58.0045 12.7795C59.3452 12.7795 60.5037 13.8686 60.5037 15.4639C60.5037 17.0404 59.3452 18.1482 58.0045 18.1482ZM69.9062 11.3043V12.0245H69.8397C69.4043 11.5024 68.5655 11.0338 67.5097 11.0338C65.2954 11.0338 63.2633 12.9806 63.2633 15.4812C63.2633 17.9617 65.2939 19.8925 67.5097 19.8925C68.5655 19.8925 69.4043 19.4239 69.8397 18.8873H69.9062V19.5237C69.9062 21.2173 69.0008 22.1241 67.5415 22.1241C66.3497 22.1241 65.6121 21.2679 65.3098 20.5491L63.6147 21.2535C64.1007 22.4264 65.3937 23.8698 67.54 23.8698C69.8194 23.8698 71.7488 22.5262 71.7488 19.2561V11.3028L69.9062 11.3043ZM67.676 18.1482C66.3353 18.1482 65.2086 17.023 65.2086 15.4812C65.2086 13.9221 66.3338 12.781 67.676 12.781C69.0008 12.781 70.0407 13.9207 70.0407 15.4812C70.0422 17.023 69.0023 18.1482 67.676 18.1482ZM73.0924 6.60665H75.0392V19.6235H73.0924V6.60665ZM80.3746 18.1482C79.3854 18.1482 78.6795 17.6941 78.2297 16.8075L84.1509 14.356L83.947 13.8527C83.5797 12.8648 82.4544 11.0353 80.1562 11.0353C77.8754 11.0353 75.9793 12.8301 75.9793 15.4639C75.9793 17.9443 77.858 19.891 80.3746 19.891C82.4053 19.891 83.5797 18.6515 84.0656 17.9284L82.5557 16.9232C82.0509 17.6623 81.3625 18.1497 80.3746 18.1482ZM80.2228 12.7462C80.9937 12.7462 81.6474 13.1324 81.8658 13.6849L77.9058 15.3294C77.8566 13.6184 79.232 12.7462 80.2228 12.7462Z" fill="#808285"/>
<path id="path1235" fill-rule="evenodd" clip-rule="evenodd" d="M92.6929 6.60669H88.0387V19.6235H89.9811V14.693H92.6944C94.8479 14.693 96.9653 13.1339 96.9653 10.6491C96.9653 8.16871 94.8494 6.60814 92.6973 6.60814L92.6929 6.60669ZM92.7436 12.8808H89.9811V8.41747H92.7436C94.1956 8.41747 95.0229 9.62225 95.0229 10.6491C95.0229 11.6587 94.1956 12.8808 92.7436 12.8808ZM99.978 19.6235V6.60669H98.0356V19.6235H99.978ZM108.704 19.6004V14.6106C108.704 12.2994 106.977 11.0107 104.748 11.0107C103.344 11.0107 101.887 11.6312 101.284 13.0037L103.008 13.7226C103.377 13.0037 104.062 12.768 104.784 12.768C105.788 12.768 106.809 13.3711 106.825 14.4443V14.5788C106.473 14.3777 105.721 14.0755 104.799 14.0755C102.94 14.0755 101.048 15.0966 101.048 17.0057C101.048 18.7485 102.573 19.8694 104.281 19.8694C105.588 19.8694 106.307 19.2836 106.758 18.5981H106.825V19.6033H108.702L108.704 19.6004ZM104.517 18.1454C103.88 18.1454 102.992 17.8272 102.992 17.0418C102.992 16.0367 104.099 15.649 105.053 15.649C105.908 15.649 106.309 15.8327 106.829 16.0844C106.68 17.253 105.692 18.1309 104.517 18.1454ZM115.535 11.2956L113.307 16.9377H113.241L110.929 11.2956H108.837L112.302 19.1838L110.325 23.5705H112.351L117.692 11.2956H115.535Z" fill="#808285"/>
</g>
</g>
<defs>
<linearGradient id="paint0_linear_21_158" x1="12.652" y1="1.67777" x2="-8.58792" y2="7.33716" gradientUnits="userSpaceOnUse">
<stop stop-color="#00A0FF"/>
<stop offset="0.007" stop-color="#00A1FF"/>
<stop offset="0.26" stop-color="#00BEFF"/>
<stop offset="0.512" stop-color="#00D2FF"/>
<stop offset="0.76" stop-color="#00DFFF"/>
<stop offset="1" stop-color="#00E3FF"/>
</linearGradient>
<linearGradient id="paint1_linear_21_158" x1="25.5333" y1="13.7651" x2="-0.364209" y2="13.7651" gradientUnits="userSpaceOnUse">
<stop stop-color="#FFE000"/>
<stop offset="0.409" stop-color="#FFBD00"/>
<stop offset="0.775" stop-color="#FFA500"/>
<stop offset="1" stop-color="#FF9C00"/>
</linearGradient>
<linearGradient id="paint2_linear_21_158" x1="15.8925" y1="16.2232" x2="-1.159" y2="44.9219" gradientUnits="userSpaceOnUse">
<stop stop-color="#FF3A44"/>
<stop offset="1" stop-color="#C31162"/>
</linearGradient>
<linearGradient id="paint3_linear_21_158" x1="-2.87151" y1="-7.44975" x2="4.73568" y2="5.36757" gradientUnits="userSpaceOnUse">
<stop stop-color="#32A071"/>
<stop offset="0.069" stop-color="#2DA771"/>
<stop offset="0.476" stop-color="#15CF74"/>
<stop offset="0.801" stop-color="#06E775"/>
<stop offset="1" stop-color="#00F076"/>
</linearGradient>
</defs>
</svg>
