<svg width="131" height="155" viewBox="0 0 131 155" fill="none" xmlns="http://www.w3.org/2000/svg">
<g id="Ts Logo1" clip-path="url(#clip0_44_71)">
<g id="Layer_x0020_1">
<g id="_2606043800160">
<path id="Vector" fill-rule="evenodd" clip-rule="evenodd" d="M78.1156 24.2554L62.1626 34.252V72.2467L77.8972 93.1415L103.246 102.038V115.873L89.4799 111.042V104.013L62.1626 94.4311V113.317L77.8972 134.431L115.265 147.544L131 137.47V99.9139L115.084 78.5162L89.4799 69.5323V55.9165L103.246 60.7477V67.554L131 77.294V58.1853L115.047 37.2129L78.1156 24.2554Z" fill="#229ED9"/>
<path id="Vector_2" fill-rule="evenodd" clip-rule="evenodd" d="M78.1156 24.2554L62.1626 34.252V72.2467L77.8972 93.1415L103.246 102.038V115.873L89.4799 111.042V104.013L62.1626 94.4311V113.317L77.8972 134.431L115.265 147.544L131 137.47V99.9139L115.084 78.5162L89.4799 69.5323V55.9165L103.246 60.7477V67.554L131 77.294V58.1853L115.047 37.2129L78.1156 24.2554Z" fill="#229ED9"/>
<path id="Vector_3" fill-rule="evenodd" clip-rule="evenodd" d="M44.0093 11.6116L80.3159 29.8561V154.998L44.0093 136.754V29.3024H0V0.00115967H124.325V29.3024H91.7742V21.1592L44.0093 11.6116Z" fill="#229ED9"/>
</g>
</g>
</g>
<defs>
<clipPath id="clip0_44_71">
<rect width="131" height="155" fill="white"/>
</clipPath>
</defs>
</svg>
